HIERARCHY
ROOT pelvis
{
  OFFSET 0 100 0
  CHANNELS 6 Xposition Yposition Zposition Zrotation Xrotation Yrotation
  JOINT pelvis_right_femur
  {
    OFFSET -10.78128 -3.44521 -0.5502486
    CHANNELS 3 Zrotation Xrotation Yrotation
    JOINT right_femur_tibia
    {
      OFFSET -0.8047443 -44.0398 -0.1307829
      CHANNELS 3 Zrotation Xrotation Yrotation
      JOINT right_tibia_foot
      {
        OFFSET 3.006224 -47.83518 -5
        CHANNELS 3 Zrotation Xrotation Yrotation
        End Site
        {
          OFFSET 0 -5 15
        }
      }
    }
  }
  JOINT pelvis_left_femur
  {
    OFFSET 10.78128 -3.44521 -0.5502486
    CHANNELS 3 Zrotation Xrotation Yrotation
    JOINT left_femur_tibia
    {
      OFFSET 0.8047443 -44.0398 -0.1307829
      CHANNELS 3 Zrotation Xrotation Yrotation
      JOINT left_tibia_foot
      {
        OFFSET -4.370144 -48.10324 -4.275266
        CHANNELS 3 Zrotation Xrotation Yrotation
        End Site
        {
          OFFSET 0 -5 15
        }
      }
    }
  }
  JOINT pelvis_spine1
  {
    OFFSET 0 6.468898 -3.129235
    CHANNELS 3 Zrotation Xrotation Yrotation
    JOINT spine1
    {
      OFFSET 0 23.15396 4.99043
      CHANNELS 3 Zrotation Xrotation Yrotation
      JOINT spine2
      {
        OFFSET 0 20.79997 -5.064912
        CHANNELS 3 Zrotation Xrotation Yrotation
        JOINT neck
        {
          OFFSET 0 14.38658 9.616178
          CHANNELS 3 Zrotation Xrotation Yrotation
          End Site
          {
            OFFSET 0 20 0
          }
        }
      }
      JOINT right_manubrium
      {
        OFFSET -5.722621 16.35077 3.967754
        CHANNELS 3 Zrotation Xrotation Yrotation
        JOINT right_clavicle
        {
          OFFSET -13.16364 1.694482 -4.693211
          CHANNELS 3 Zrotation Xrotation Yrotation
          JOINT right_humerus
          {
            OFFSET -28.5034 -0.3100689 -2.792744
            CHANNELS 3 Zrotation Xrotation Yrotation
            JOINT right_radius
            {
              OFFSET -25.15693 0.02248979 -1.271978
              CHANNELS 3 Zrotation Xrotation Yrotation
              End Site
              {
                OFFSET -15 0 0
              }
            }
          }
        }
      }
      JOINT left_manubrium
      {
        OFFSET 5.722621 16.35077 3.967754
        CHANNELS 3 Zrotation Xrotation Yrotation
        JOINT left_clavicle
        {
          OFFSET 13.16364 1.694482 -4.693211
          CHANNELS 3 Zrotation Xrotation Yrotation
          JOINT left_humerus
          {
            OFFSET 29.39168 -1.063119 -2.237045
            CHANNELS 3 Zrotation Xrotation Yrotation
            JOINT left_radius
            {
              OFFSET 24.59957 -0.9528479 0.9047498
              CHANNELS 3 Zrotation Xrotation Yrotation
              End Site
              {
                OFFSET 15 -0 -0
              }
            }
          }
        }
      }
    }
  }
}
MOTION
Frames: 23
Frame Time: 0.0416666666667
-1604.657 114.1066 93.32888 3.388007 6.589131 154.4579 4.367114 14.38225 0.8245158 -0 18.87993 -0 -10.61572 -12.96377 0.107635 3.422004 -17.94963 -2.784313 -0 8.330567 -0 2.176949 -0.675743 13.84751 0.466236 -3.731756 8.487734 0.1474792 15.09637 -5.41489 -0.1823528 18.53204 3.674812 3.099521 -16.53853 2.56515 1.840009 -30.06413 12.76477 83.80305 21.15686 -8.059159 -0 0 31.87392 -20.34178 14.99956 12.64381 3.054556 -22.80748 -7.784448 -95.65066 8.550818 38.62433 0 0 -5.820171 7.230408 11.40857 4.001224
-1603.453 114.0853 87.41175 3.436794 6.563898 154.032 4.367114 14.38225 0.8245158 -0 18.87993 -0 -10.61572 -12.96377 0.107635 3.422004 -17.94963 -2.784313 -0 8.330567 -0 2.176949 -0.675743 13.84751 0.466236 -3.731756 8.487734 0.1474792 15.09637 -5.41489 -0.1823528 18.53204 3.674812 3.099521 -16.53853 2.56515 1.840009 -30.06413 12.76477 83.80305 21.15686 -8.059159 -0 0 31.87392 -20.34178 14.99956 12.64381 3.054556 -22.80748 -7.784448 -95.65066 8.550818 38.62433 0 0 -5.820171 7.230408 11.40857 4.001224
-1602.205 114.0641 81.50369 3.485389 6.538305 153.606 4.367114 14.38225 0.8245158 -0 18.87993 -0 -10.61572 -12.96377 0.107635 3.422004 -17.94963 -2.784313 -0 8.330567 -0 2.176949 -0.675743 13.84751 0.466236 -3.731756 8.487734 0.1474792 15.09637 -5.41489 -0.1823528 18.53204 3.674812 3.099521 -16.53853 2.56515 1.840009 -30.06413 12.76477 83.80305 21.15686 -8.059159 -0 0 31.87392 -20.34178 14.99956 12.64381 3.054556 -22.80748 -7.784448 -95.65066 8.550818 38.62433 0 0 -5.820171 7.230408 11.40857 4.001224
-1600.914 114.0429 75.60502 3.533788 6.512354 153.1801 4.367114 14.38225 0.8245158 -0 18.87993 -0 -10.61572 -12.96377 0.107635 3.422004 -17.94963 -2.784313 -0 8.330567 -0 2.176949 -0.675743 13.84751 0.466236 -3.731756 8.487734 0.1474792 15.09637 -5.41489 -0.1823528 18.53204 3.674812 3.099521 -16.53853 2.56515 1.840009 -30.06413 12.76477 83.80305 21.15686 -8.059159 -0 0 31.87392 -20.34178 14.99956 12.64381 3.054556 -22.80748 -7.784448 -95.65066 8.550818 38.62433 0 0 -5.820171 7.230408 11.40857 4.001224
-1599.579 114.0216 69.71607 3.58199 6.486046 152.7543 4.367114 14.38225 0.8245158 -0 18.87993 -0 -10.61572 -12.96377 0.107635 3.422004 -17.94963 -2.784313 -0 8.330567 -0 2.176949 -0.675743 13.84751 0.466236 -3.731756 8.487734 0.1474792 15.09637 -5.41489 -0.1823528 18.53204 3.674812 3.099521 -16.53853 2.56515 1.840009 -30.06413 12.76477 83.80305 21.15686 -8.059159 -0 0 31.87392 -20.34178 14.99956 12.64381 3.054556 -22.80748 -7.784448 -95.65066 8.550818 38.62433 0 0 -5.820171 7.230408 11.40857 4.001224
-1598.2 114.0004 63.83715 3.629991 6.459384 152.3285 4.367114 14.38225 0.8245158 -0 18.87993 -0 -10.61572 -12.96377 0.107635 3.422004 -17.94963 -2.784313 -0 8.330567 -0 2.176949 -0.675743 13.84751 0.466236 -3.731756 8.487734 0.1474792 15.09637 -5.41489 -0.1823528 18.53204 3.674812 3.099521 -16.53853 2.56515 1.840009 -30.06413 12.76477 83.80305 21.15686 -8.059159 -0 0 31.87392 -20.34178 14.99956 12.64381 3.054556 -22.80748 -7.784448 -95.65066 8.550818 38.62433 0 0 -5.820171 7.230408 11.40857 4.001224
-1596.778 113.9792 57.9686 3.677788 6.432367 151.9027 4.367114 14.38225 0.8245158 -0 18.87993 -0 -10.61572 -12.96377 0.107635 3.422004 -17.94963 -2.784313 -0 8.330567 -0 2.176949 -0.675743 13.84751 0.466236 -3.731756 8.487734 0.1474792 15.09637 -5.41489 -0.1823528 18.53204 3.674812 3.099521 -16.53853 2.56515 1.840009 -30.06413 12.76477 83.80305 21.15686 -8.059159 -0 0 31.87392 -20.34178 14.99956 12.64381 3.054556 -22.80748 -7.784448 -95.65066 8.550818 38.62433 0 0 -5.820171 7.230408 11.40857 4.001224
-1595.313 113.9579 52.11074 3.72538 6.404998 151.477 4.367114 14.38225 0.8245158 -0 18.87993 -0 -10.61572 -12.96377 0.107635 3.422004 -17.94963 -2.784313 -0 8.330567 -0 2.176949 -0.675743 13.84751 0.466236 -3.731756 8.487734 0.1474792 15.09637 -5.41489 -0.1823528 18.53204 3.674812 3.099521 -16.53853 2.56515 1.840009 -30.06413 12.76477 83.80305 21.15686 -8.059159 -0 0 31.87392 -20.34178 14.99956 12.64381 3.054556 -22.80748 -7.784448 -95.65066 8.550818 38.62433 0 0 -5.820171 7.230408 11.40857 4.001224
-1593.804 113.9367 46.26387 3.772763 6.377279 151.0514 4.367114 14.38225 0.8245158 -0 18.87993 -0 -10.61572 -12.96377 0.107635 3.422004 -17.94963 -2.784313 -0 8.330567 -0 2.176949 -0.675743 13.84751 0.466236 -3.731756 8.487734 0.1474792 15.09637 -5.41489 -0.1823528 18.53204 3.674812 3.099521 -16.53853 2.56515 1.840009 -30.06413 12.76477 83.80305 21.15686 -8.059159 -0 0 31.87392 -20.34178 14.99956 12.64381 3.054556 -22.80748 -7.784448 -95.65066 8.550818 38.62433 0 0 -5.820171 7.230408 11.40857 4.001224
-1592.252 113.9155 40.42833 3.819935 6.34921 150.6257 4.367114 14.38225 0.8245158 -0 18.87993 -0 -10.61572 -12.96377 0.107635 3.422004 -17.94963 -2.784313 -0 8.330567 -0 2.176949 -0.675743 13.84751 0.466236 -3.731756 8.487734 0.1474792 15.09637 -5.41489 -0.1823528 18.53204 3.674812 3.099521 -16.53853 2.56515 1.840009 -30.06413 12.76477 83.80305 21.15686 -8.059159 -0 0 31.87392 -20.34178 14.99956 12.64381 3.054556 -22.80748 -7.784448 -95.65066 8.550818 38.62433 0 0 -5.820171 7.230408 11.40857 4.001224
-1590.657 113.8942 34.60443 3.866894 6.320794 150.2002 4.367114 14.38225 0.8245158 -0 18.87993 -0 -10.61572 -12.96377 0.107635 3.422004 -17.94963 -2.784313 -0 8.330567 -0 2.176949 -0.675743 13.84751 0.466236 -3.731756 8.487734 0.1474792 15.09637 -5.41489 -0.1823528 18.53204 3.674812 3.099521 -16.53853 2.56515 1.840009 -30.06413 12.76477 83.80305 21.15686 -8.059159 -0 0 31.87392 -20.34178 14.99956 12.64381 3.054556 -22.80748 -7.784448 -95.65066 8.550818 38.62433 0 0 -5.820171 7.230408 11.40857 4.001224
-1589.019 113.873 28.79249 3.913636 6.292033 149.7746 4.367114 14.38225 0.8245158 -0 18.87993 -0 -10.61572 -12.96377 0.107635 3.422004 -17.94963 -2.784313 -0 8.330567 -0 2.176949 -0.675743 13.84751 0.466236 -3.731756 8.487734 0.1474792 15.09637 -5.41489 -0.1823528 18.53204 3.674812 3.099521 -16.53853 2.56515 1.840009 -30.06413 12.76477 83.80305 21.15686 -8.059159 -0 0 31.87392 -20.34178 14.99956 12.64381 3.054556 -22.80748 -7.784448 -95.65066 8.550818 38.62433 0 0 -5.820171 7.230408 11.40857 4.001224
-1587.337 113.8518 22.99283 3.960159 6.262927 149.3492 4.367114 14.38225 0.8245158 -0 18.87993 -0 -10.61572 -12.96377 0.107635 3.422004 -17.94963 -2.784313 -0 8.330567 -0 2.176949 -0.675743 13.84751 0.466236 -3.731756 8.487734 0.1474792 15.09637 -5.41489 -0.1823528 18.53204 3.674812 3.099521 -16.53853 2.56515 1.840009 -30.06413 12.76477 83.80305 21.15686 -8.059159 -0 0 31.87392 -20.34178 14.99956 12.64381 3.054556 -22.80748 -7.784448 -95.65066 8.550818 38.62433 0 0 -5.820171 7.230408 11.40857 4.001224
-1585.613 113.8305 17.20577 4.006461 6.233478 148.9237 4.367114 14.38225 0.8245158 -0 18.87993 -0 -10.61572 -12.96377 0.107635 3.422004 -17.94963 -2.784313 -0 8.330567 -0 2.176949 -0.675743 13.84751 0.466236 -3.731756 8.487734 0.1474792 15.09637 -5.41489 -0.1823528 18.53204 3.674812 3.099521 -16.53853 2.56515 1.840009 -30.06413 12.76477 83.80305 21.15686 -8.059159 -0 0 31.87392 -20.34178 14.99956 12.64381 3.054556 -22.80748 -7.784448 -95.65066 8.550818 38.62433 0 0 -5.820171 7.230408 11.40857 4.001224
-1583.847 113.8093 11.43163 4.05254 6.203689 148.4984 4.367114 14.38225 0.8245158 -0 18.87993 -0 -10.61572 -12.96377 0.107635 3.422004 -17.94963 -2.784313 -0 8.330567 -0 2.176949 -0.675743 13.84751 0.466236 -3.731756 8.487734 0.1474792 15.09637 -5.41489 -0.1823528 18.53204 3.674812 3.099521 -16.53853 2.56515 1.840009 -30.06413 12.76477 83.80305 21.15686 -8.059159 -0 0 31.87392 -20.34178 14.99956 12.64381 3.054556 -22.80748 -7.784448 -95.65066 8.550818 38.62433 0 0 -5.820171 7.230408 11.40857 4.001224
-1582.037 113.7881 5.670708 4.098392 6.17356 148.073 4.367114 14.38225 0.8245158 -0 18.87993 -0 -10.61572 -12.96377 0.107635 3.422004 -17.94963 -2.784313 -0 8.330567 -0 2.176949 -0.675743 13.84751 0.466236 -3.731756 8.487734 0.1474792 15.09637 -5.41489 -0.1823528 18.53204 3.674812 3.099521 -16.53853 2.56515 1.840009 -30.06413 12.76477 83.80305 21.15686 -8.059159 -0 0 31.87392 -20.34178 14.99956 12.64381 3.054556 -22.80748 -7.784448 -95.65066 8.550818 38.62433 0 0 -5.820171 7.230408 11.40857 4.001224
-1580.185 113.7668 -0.07666307 4.144015 6.143094 147.6477 4.367114 14.38225 0.8245158 -0 18.87993 -0 -10.61572 -12.96377 0.107635 3.422004 -17.94963 -2.784313 -0 8.330567 -0 2.176949 -0.675743 13.84751 0.466236 -3.731756 8.487734 0.1474792 15.09637 -5.41489 -0.1823528 18.53204 3.674812 3.099521 -16.53853 2.56515 1.840009 -30.06413 12.76477 83.80305 21.15686 -8.059159 -0 0 31.87392 -20.34178 14.99956 12.64381 3.054556 -22.80748 -7.784448 -95.65066 8.550818 38.62433 0 0 -5.820171 7.230408 11.40857 4.001224
-1578.291 113.7456 -5.810175 4.189407 6.112292 147.2225 4.367114 14.38225 0.8245158 -0 18.87993 -0 -10.61572 -12.96377 0.107635 3.422004 -17.94963 -2.784313 -0 8.330567 -0 2.176949 -0.675743 13.84751 0.466236 -3.731756 8.487734 0.1474792 15.09637 -5.41489 -0.1823528 18.53204 3.674812 3.099521 -16.53853 2.56515 1.840009 -30.06413 12.76477 83.80305 21.15686 -8.059159 -0 0 31.87392 -20.34178 14.99956 12.64381 3.054556 -22.80748 -7.784448 -95.65066 8.550818 38.62433 0 0 -5.820171 7.230408 11.40857 4.001224
-1576.354 113.7244 -11.52951 4.234565 6.081155 146.7973 4.367114 14.38225 0.8245158 -0 18.87993 -0 -10.61572 -12.96377 0.107635 3.422004 -17.94963 -2.784313 -0 8.330567 -0 2.176949 -0.675743 13.84751 0.466236 -3.731756 8.487734 0.1474792 15.09637 -5.41489 -0.1823528 18.53204 3.674812 3.099521 -16.53853 2.56515 1.840009 -30.06413 12.76477 83.80305 21.15686 -8.059159 -0 0 31.87392 -20.34178 14.99956 12.64381 3.054556 -22.80748 -7.784448 -95.65066 8.550818 38.62433 0 0 -5.820171 7.230408 11.40857 4.001224
-1574.375 113.7031 -17.23436 4.279487 6.049687 146.3722 4.367114 14.38225 0.8245158 -0 18.87993 -0 -10.61572 -12.96377 0.107635 3.422004 -17.94963 -2.784313 -0 8.330567 -0 2.176949 -0.675743 13.84751 0.466236 -3.731756 8.487734 0.1474792 15.09637 -5.41489 -0.1823528 18.53204 3.674812 3.099521 -16.53853 2.56515 1.840009 -30.06413 12.76477 83.80305 21.15686 -8.059159 -0 0 31.87392 -20.34178 14.99956 12.64381 3.054556 -22.80748 -7.784448 -95.65066 8.550818 38.62433 0 0 -5.820171 7.230408 11.40857 4.001224
-1572.353 113.6819 -22.92441 4.32417 6.017888 145.9471 4.367114 14.38225 0.8245158 -0 18.87993 -0 -10.61572 -12.96377 0.107635 3.422004 -17.94963 -2.784313 -0 8.330567 -0 2.176949 -0.675743 13.84751 0.466236 -3.731756 8.487734 0.1474792 15.09637 -5.41489 -0.1823528 18.53204 3.674812 3.099521 -16.53853 2.56515 1.840009 -30.06413 12.76477 83.80305 21.15686 -8.059159 -0 0 31.87392 -20.34178 14.99956 12.64381 3.054556 -22.80748 -7.784448 -95.65066 8.550818 38.62433 0 0 -5.820171 7.230408 11.40857 4.001224
-1570.29 113.6607 -28.59935 4.368612 5.98576 145.5221 4.367114 14.38225 0.8245158 -0 18.87993 -0 -10.61572 -12.96377 0.107635 3.422004 -17.94963 -2.784313 -0 8.330567 -0 2.176949 -0.675743 13.84751 0.466236 -3.731756 8.487734 0.1474792 15.09637 -5.41489 -0.1823528 18.53204 3.674812 3.099521 -16.53853 2.56515 1.840009 -30.06413 12.76477 83.80305 21.15686 -8.059159 -0 0 31.87392 -20.34178 14.99956 12.64381 3.054556 -22.80748 -7.784448 -95.65066 8.550818 38.62433 0 0 -5.820171 7.230408 11.40857 4.001224
-1568.185 113.6394 -34.25887 4.412811 5.953305 145.0971 4.367114 14.38225 0.8245158 -0 18.87993 -0 -10.61572 -12.96377 0.107635 3.422004 -17.94963 -2.784313 -0 8.330567 -0 2.176949 -0.675743 13.84751 0.466236 -3.731756 8.487734 0.1474792 15.09637 -5.41489 -0.1823528 18.53204 3.674812 3.099521 -16.53853 2.56515 1.840009 -30.06413 12.76477 83.80305 21.15686 -8.059159 -0 0 31.87392 -20.34178 14.99956 12.64381 3.054556 -22.80748 -7.784448 -95.65066 8.550818 38.62433 0 0 -5.820171 7.230408 11.40857 4.001224
